<svg width="82" height="82" viewBox="0 0 82 82" fill="none" xmlns="http://www.w3.org/2000/svg">
<path d="M41.3297 11.7537C37.2499 11.7537 33.932 15.0716 33.932 19.1513C33.932 23.231 37.2499 26.5488 41.3297 26.5488C45.4094 26.5488 48.7271 23.2309 48.7271 19.1513C48.7271 15.0718 45.4092 11.7537 41.3297 11.7537ZM41.3297 22.8519C39.2898 22.8519 37.6291 21.1912 37.6291 19.1513C37.6291 17.1114 39.2898 15.4508 41.3297 15.4508C43.3695 15.4508 45.0302 17.1114 45.0302 19.1513C45.0302 21.1912 43.3695 22.8519 41.3297 22.8519Z" fill="white"/>
<path d="M80.1516 33.9393C81.1733 33.9393 82.0001 33.1176 82.0001 32.096V24.7029C82.0001 24.0513 81.6572 23.4466 81.0957 23.1144L44.9364 1.64068C44.9201 1.62977 44.9038 1.62075 44.8877 1.61174C42.6402 0.366267 40.1058 0.328489 37.7283 1.63704L1.57106 23.1144C1.00958 23.4465 0.666626 24.0513 0.666626 24.7029V32.096C0.666626 33.1176 1.49342 33.9393 2.51517 33.9393H8.06063V67.2136C3.98264 67.2136 0.666626 70.5293 0.666626 74.6068V80.1517C0.666626 81.1733 1.49342 82.0001 2.51517 82.0001H80.1516C81.1733 82.0001 82.0001 81.1735 82.0001 80.1517V74.6068C82.0001 70.5293 78.6841 67.2136 74.6061 67.2136V33.9393H80.1516ZM78.303 74.6061V78.303H4.36354V74.6061C4.36354 72.5681 6.0225 70.9092 8.06045 70.9092H9.909H72.7576H74.6061C76.6441 70.909 78.303 72.568 78.303 74.6061ZM11.7575 67.2121V33.9393H19.1515V67.2121H11.7575ZM22.8485 67.2121V33.9393H33.9394V67.2121H22.8485ZM37.6363 67.2121V33.9393H45.0303V67.2121H37.6363ZM48.7272 67.2121V33.9393H59.8181V67.2121H48.7272ZM63.5152 67.2121V33.9393H70.9092V67.2121H63.5152ZM4.36354 30.2424V25.7494L39.5625 4.83833C40.7142 4.20476 41.938 4.2065 43.0753 4.82568L78.303 25.7494V30.2424H4.36354Z" fill="white"/>
</svg>
