<svg width="109" height="118" viewBox="0 0 109 118" fill="none" xmlns="http://www.w3.org/2000/svg">
<path d="M64.4872 74.4648C64.4872 72.2697 63.7115 70.4206 62.16 68.9175C60.6323 67.4143 58.0425 66.0543 54.3905 64.8375C49.3064 63.2866 45.5947 61.2704 43.2556 58.789C40.9403 56.2838 39.7826 53.1104 39.7826 49.269C39.7826 45.356 40.9164 42.1469 43.184 39.6417C45.4754 37.1364 48.0881 35.1278 52.0743 34.6506V27.3301L58.3333 27.3301V34.6864C62.3433 35.2352 65.0601 37.4346 67.2799 40.2501C69.5236 43.0655 70.6455 46.9189 70.6455 51.8101H64.0576C64.0576 48.4459 63.258 45.7736 61.6587 43.7932C60.0595 41.8129 57.8993 40.8227 55.1782 40.8227C52.3378 40.8227 50.1657 41.5624 48.6619 43.0417C47.1582 44.4971 46.4063 46.5371 46.4063 49.1617C46.4063 51.5953 47.194 53.5399 48.7694 54.9953C50.3686 56.4269 52.9823 57.7392 56.6104 58.9322C60.2624 60.1013 63.1028 61.4017 65.1317 62.8332C67.1844 64.241 68.6882 65.8873 69.643 67.7722C70.6216 69.6571 71.1109 71.8641 71.1109 74.3932C71.1109 78.4255 69.8936 81.6704 67.4589 84.128C65.0481 86.5855 62.0346 88.5467 57.6666 89V95.3301H51.3072V89C46.8675 88.5944 44.0671 86.5139 41.537 83.7701C39.0307 81.0024 37.7776 77.2564 37.7776 72.5322H44.4013C44.4013 75.8487 45.2725 78.4017 47.015 80.1911C48.7574 81.9806 51.2279 82.8753 54.4264 82.8753C57.5532 82.8753 60.0117 82.1238 61.8019 80.6206C63.5921 79.1175 64.4872 77.0655 64.4872 74.4648Z" fill="white" stroke="#581C86" stroke-width="2"/>
<path d="M23.1381 24.5364C40.1647 9.13471 65.6458 8.89921 82.9079 22.9586L69.2254 23.4767C67.4592 23.5473 66.0933 25.0074 66.1639 26.7737C66.2346 28.4928 67.6476 29.8352 69.3432 29.8352C69.3903 29.8352 69.4138 29.8352 69.4609 29.8352L90.4675 29.058C92.1866 28.9874 93.529 27.5979 93.529 25.8788V25.6433C93.529 25.5962 93.529 25.5726 93.529 25.5255V25.502L92.7518 4.73087C92.6812 2.96462 91.1975 1.59872 89.4548 1.66937C87.6886 1.74002 86.3227 3.20012 86.3933 4.96637L86.8879 17.9895C78.3393 10.9952 67.8124 6.94457 56.5555 6.37937C42.6139 5.67287 29.214 10.4535 18.8756 19.8264C4.65136 32.7082 -1.37743 52.3018 3.14416 70.9534C3.49741 72.4135 4.79266 73.3791 6.22921 73.3791C6.48826 73.3791 6.72376 73.3555 6.98281 73.2849C8.67841 72.861 9.73816 71.1418 9.31426 69.4462C5.35786 53.0554 10.6331 35.8404 23.1381 24.5364Z" fill="white" stroke="#581C86" stroke-width="2"/>
<path d="M105.633 47.7096C105.21 46.014 103.49 44.9542 101.795 45.3781C100.099 45.802 99.0395 47.5212 99.4634 49.2168C103.443 65.6076 98.1446 82.8226 85.6395 94.1266C76.8554 102.063 65.834 105.972 54.8597 105.972C44.38 105.972 33.9238 102.416 25.4929 95.3983L39.3403 94.1502C41.083 93.9853 42.3782 92.4546 42.2134 90.6883C42.0485 88.9221 40.5178 87.6504 38.7515 87.8152L17.8156 89.6992C16.0729 89.8641 14.7776 91.3948 14.9425 93.1611L16.8265 114.097C16.9678 115.745 18.3572 116.994 19.9822 116.994C20.0764 116.994 20.1706 116.994 20.2648 116.97C22.0075 116.805 23.3027 115.274 23.1379 113.508L22.0075 100.768C30.5561 107.691 41.0359 111.718 52.2221 112.284C53.117 112.331 54.0119 112.354 54.8833 112.354C67.8593 112.354 80.1995 107.597 89.9021 98.8366C104.126 85.9548 110.155 66.3847 105.633 47.7096Z" fill="white" stroke="#581C86" stroke-width="2"/>
</svg>
