<svg width="92" height="92" viewBox="0 0 92 92" fill="none" xmlns="http://www.w3.org/2000/svg">
<path d="M91.032 78.9857L91.032 78.9857C90.712 77.4484 89.2059 76.4615 87.6685 76.7814L91.032 78.9857ZM91.032 78.9857C91.6621 82.0117 90.9078 85.1157 88.9629 87.5074C87.028 89.8866 84.1616 91.25 81.0937 91.25H64.8667C63.2961 91.25 62.0229 89.9769 62.0229 88.4062C62.0229 86.8356 63.2961 85.5625 64.8667 85.5625H81.0937C82.9396 85.5625 84.0576 84.5246 84.5503 83.9192L84.5504 83.919M91.032 78.9857L84.5504 83.919M84.5504 83.919C85.4107 82.8612 85.7427 81.4836 85.464 80.1451C85.1438 78.6076 86.1306 77.1017 87.6684 76.7814L84.5504 83.919Z" fill="white" stroke="#581C86" stroke-width="1.5"/>
<path d="M49.7174 48.2663L48.6959 48.1723L48.9161 49.1742L55.7849 80.4274C55.993 81.3746 55.7041 82.3625 55.0183 83.0485L47.8312 90.2372C47.8312 90.2372 47.8312 90.2372 47.8312 90.2373C47.2978 90.7706 46.5745 91.0703 45.8202 91.0703C45.0657 91.0703 44.3423 90.7707 43.8092 90.2373L43.8091 90.2372L36.6213 83.0485L36.0909 83.5788L36.6212 83.0484C35.9355 82.3628 35.6465 81.3748 35.8545 80.4272C35.8545 80.4272 35.8545 80.4271 35.8546 80.4271L42.7152 49.2139L42.9379 48.2008L41.906 48.3068C24.6579 50.0797 10.1217 62.9177 6.53512 80.145C6.25638 81.4837 6.58844 82.861 7.44861 83.919L7.44871 83.9191C7.9415 84.5249 9.05958 85.5625 10.9053 85.5625H26.5937C28.1643 85.5625 29.4374 86.8356 29.4374 88.4062C29.4374 89.9769 28.1643 91.25 26.5937 91.25H10.9057C7.83785 91.25 4.97124 89.8866 3.03654 87.5074L2.45464 87.9806L3.03653 87.5074C1.09167 85.1157 0.33734 82.0117 0.967416 78.9857L0.233237 78.8329L0.967422 78.9857C3.08916 68.794 8.71114 59.5159 16.7974 52.8645C21.2063 49.2381 26.2451 46.4889 31.6156 44.7209L32.9827 44.2709L31.8307 43.4082C26.0541 39.0825 22.3124 32.1882 22.3124 24.4375C22.3124 11.3768 32.9394 0.75 45.9999 0.75C59.0605 0.75 69.6874 11.3768 69.6874 24.4375C69.6874 32.1831 65.9504 39.0734 60.1802 43.3998L59.0294 44.2627L60.3956 44.7123C70.0022 47.8738 78.4282 54.1649 84.2312 62.8197C85.1058 64.1241 84.7574 65.8907 83.4528 66.7655L83.4528 66.7655C82.1486 67.6401 80.3818 67.2916 79.5073 65.9872L79.5073 65.9871C72.6922 55.823 61.7485 49.3745 49.7174 48.2663ZM46.8424 42.4162L46.8677 42.4166L46.893 42.4154C56.4057 41.9479 63.9999 34.0642 63.9999 24.4375C63.9999 14.5115 55.9259 6.4375 45.9999 6.4375C36.074 6.4375 27.9999 14.5115 27.9999 24.4375C27.9999 34.0696 35.6028 41.9567 45.123 42.416L45.1478 42.4172L45.1726 42.4167C45.4516 42.4117 45.7263 42.4077 45.9999 42.4077C46.2799 42.4077 46.5605 42.411 46.8424 42.4162ZM45.2897 83.674L45.8201 84.2045L46.3505 83.674L49.6055 80.4183L49.8736 80.1501L49.8166 79.7751L46.5615 58.3872L45.0786 58.3871L41.8232 79.7749L41.7661 80.1499L42.0343 80.4181L45.2897 83.674Z" fill="white" stroke="#581C86" stroke-width="1.5"/>
</svg>
