<svg width="110" height="101" viewBox="0 0 110 101" fill="none" xmlns="http://www.w3.org/2000/svg">
<path d="M82.3326 100.887H2.1556C1.67236 100.888 1.20876 100.696 0.866888 100.354C0.525011 100.012 0.333253 99.5486 0.333253 99.0651V93.1644C0.331118 87.1484 3.61728 81.6121 8.89981 78.7328L25.1564 69.8656C26.7039 69.0219 27.6667 67.4 27.6663 65.6375V59.6086C24.7092 55.6648 22.5418 51.1868 21.2832 46.4208C19.5593 45.0454 18.5552 42.9602 18.5552 40.755V33.4663C18.562 31.7035 19.2097 30.0035 20.3773 28.683V18.99C20.0235 14.678 21.3946 10.4017 24.1899 7.0995C27.9322 2.83042 34.0065 0.666626 42.2438 0.666626C50.4811 0.666626 56.5554 2.83042 60.2977 7.0995C63.0929 10.4017 64.4641 14.678 64.1102 18.99V28.683C65.2778 30.0035 65.9255 31.7035 65.9323 33.4663V40.755C65.9353 43.594 64.2768 46.1721 61.6919 47.3463C60.4106 51.107 58.5983 54.6652 56.3098 57.9129C55.8561 58.5552 55.4166 59.1354 54.9991 59.6462V65.8068C54.9927 67.6328 56.0252 69.3037 57.6613 70.115L75.0684 78.8184C80.652 81.5865 84.1759 87.2884 84.1545 93.5206V99.0656C84.1547 99.5488 83.9628 100.012 83.6209 100.354C83.2794 100.696 82.8158 100.887 82.3326 100.887ZM3.97794 97.243H80.5105V93.5202C80.5276 88.6698 77.7848 84.2318 73.4387 82.0781L56.0316 73.3746C53.158 71.9491 51.3446 69.0142 51.3551 65.8066V58.9768C51.3549 58.5339 51.5163 58.1062 51.8088 57.7739C52.3512 57.1452 52.8605 56.489 53.3348 55.8076C55.5778 52.6216 57.3192 49.111 58.4988 45.3976C58.6812 44.8319 59.1283 44.3907 59.6964 44.2161C61.2291 43.7604 62.2821 42.354 62.2881 40.755V33.4663C62.2847 32.437 61.8399 31.4586 61.0664 30.7793C60.6838 30.4338 60.4655 29.9424 60.4657 29.427V18.8888C60.4657 18.8091 60.4711 18.7293 60.4818 18.6503C60.7307 15.3201 59.6699 12.0244 57.5251 9.46445C54.5014 6.04397 49.3596 4.31068 42.2442 4.31068C35.1022 4.31068 29.9505 6.05636 26.9307 9.50139C24.7903 12.0474 23.7397 15.3344 24.006 18.6498C24.0167 18.7289 24.022 18.8085 24.022 18.8884V29.4265C24.0222 29.942 23.804 30.4336 23.4213 30.7789C22.6479 31.4582 22.2031 32.4366 22.1997 33.4658V40.7546C22.2037 41.994 22.8395 43.1458 23.8858 43.8099C24.2845 44.0674 24.567 44.4702 24.6733 44.9327C25.8196 49.6122 27.9364 53.9985 30.8865 57.8074C31.1607 58.1354 31.3108 58.549 31.311 58.9765V65.6373C31.3112 68.7334 29.6204 71.5822 26.9023 73.0648L10.6457 81.9322C6.5338 84.1727 3.97581 88.4817 3.97794 93.1644V97.243Z" fill="white"/>
<path d="M107.845 100.889H82.3337C81.8504 100.889 81.3869 100.697 81.045 100.355C80.7033 100.013 80.5113 99.5498 80.5113 99.0664V93.5214C80.5284 88.671 77.7857 84.2331 73.4396 82.0793L58.7214 74.7195C58.4474 74.5824 58.2125 74.3787 58.038 74.1269C57.3814 73.6554 55.4222 72.4969 53.7833 71.5858C53.5806 71.4732 53.4015 71.3229 53.2556 71.1427C52.0292 69.6349 51.3585 67.7512 51.356 65.8078V58.978C51.3557 58.5351 51.5172 58.1074 51.8097 57.7751C52.3521 57.1464 52.8614 56.4902 53.3357 55.8088C55.5787 52.6228 57.3201 49.1122 58.4997 45.3988C58.6821 44.8331 59.1292 44.392 59.6972 44.2173C61.23 43.7616 62.283 42.3552 62.289 40.7562V33.4675C62.2855 32.4382 61.8407 31.4598 61.0673 30.7805C60.6846 30.435 60.4664 29.9437 60.4666 29.4282V18.89C60.4666 18.8121 60.4717 18.7341 60.4818 18.6568C60.5892 17.2462 60.4645 15.8274 60.1126 14.4571C59.9031 13.6196 60.3095 12.7501 61.0859 12.3734C64.4301 10.805 68.0825 10.0038 71.7763 10.0281C93.3019 10.2043 94.0198 32.0013 94.0254 32.2219C94.2727 45.0396 102.204 57.6758 105.603 62.5125C106.538 63.8422 106.825 65.5219 106.386 67.0869C105.947 68.652 104.828 69.9368 103.338 70.5862C100.449 71.6479 97.3634 72.0647 94.2968 71.807L82.4061 71.816C82.7005 72.3908 83.1434 72.8762 83.689 73.2217L101.407 80.8931L101.497 80.9358C106.517 83.424 109.685 88.5495 109.666 94.152V99.067C109.667 99.5502 109.475 100.014 109.133 100.356C108.791 100.697 108.328 100.889 107.845 100.889ZM84.1558 97.2442H106.022V94.1515C106.037 89.948 103.669 86.0992 99.9105 84.2166L82.1494 76.5239C80.7223 75.731 79.588 74.4999 78.9143 73.0128C78.4018 71.9716 78.4631 70.7397 79.0764 69.7545C79.6896 68.7692 80.7682 68.1704 81.9286 68.1708H94.4715C96.9855 68.3857 99.5166 68.0673 101.899 67.2366C102.378 67.0314 102.737 66.6184 102.873 66.1155C103.022 65.6007 102.929 65.0466 102.621 64.6084C99.0297 59.4958 90.6493 46.1141 90.3813 32.2962C90.3628 31.5488 89.7078 13.8197 71.7759 13.672C69.1045 13.663 66.454 14.145 63.9567 15.0937C64.1653 16.3805 64.2172 17.688 64.1115 18.9872V28.6836C65.2791 30.0041 65.9268 31.7041 65.9337 33.4669V40.7556C65.9366 43.5946 64.2781 46.1727 61.6932 47.3469C60.4119 51.1076 58.5996 54.6658 56.3111 57.9135C55.8574 58.5558 55.4179 59.136 55.0004 59.6468V65.8074C55.0017 66.8027 55.3113 67.773 55.8866 68.5851C57.6221 69.4482 59.2655 70.485 60.7918 71.6797L75.0697 78.8192C80.6533 81.5873 84.1772 87.2892 84.1558 93.5214V97.2442Z" fill="white"/>
</svg>
